HIERARCHY
ROOT hip
{
  OFFSET 0 0 0
  CHANNELS 6 Xposition Yposition Zposition Zrotation Yrotation Xrotation
  JOINT abdomen
  {
    OFFSET 0 20.6881 -0.73152
    CHANNELS 3 Zrotation Xrotation Yrotation
    JOINT chest
    {
      OFFSET 0 11.7043 -0.48768
      CHANNELS 3 Zrotation Xrotation Yrotation
      JOINT neck
      {
        OFFSET 0 22.1894 -2.19456
        CHANNELS 3 Zrotation Xrotation Yrotation
        JOINT head
        {
          OFFSET -0.24384 7.07133 1.2192
          CHANNELS 3 Zrotation Xrotation Yrotation
          JOINT leftEye
          {
            OFFSET 4.14528 8.04674 8.04672
            CHANNELS 3 Zrotation Xrotation Yrotation
            End Site
            {
              OFFSET 1 0 0
            }
          }
          JOINT rightEye
          {
            OFFSET -3.6576 8.04674 8.04672
            CHANNELS 3 Zrotation Xrotation Yrotation
            End Site
            {
              OFFSET 1 0 0
            }
          }
        }
      }
      JOINT rCollar
      {
        OFFSET -2.68224 19.2634 -4.8768
        CHANNELS 3 Zrotation Xrotation Yrotation
        JOINT rShldr
        {
          OFFSET -8.77824 -1.95073 1.46304
          CHANNELS 3 Zrotation Xrotation Yrotation
          JOINT rForeArm
          {
            OFFSET -28.1742 -1.7115 0.48768
            CHANNELS 3 Zrotation Xrotation Yrotation
            JOINT rHand
            {
              OFFSET -22.5879 0.773209 7.07136
              CHANNELS 3 Zrotation Xrotation Yrotation
              JOINT rThumb1
              {
                OFFSET -1.2192 -0.487915 3.41376
                CHANNELS 3 Zrotation Xrotation Yrotation
                JOINT rThumb2
                {
                  OFFSET -3.37035 -0.52449 3.41376
                  CHANNELS 3 Zrotation Xrotation Yrotation
                  End Site
                  {
                    OFFSET -1.78271 -1.18214 1.43049
                  }
                }
              }
              JOINT rIndex1
              {
                OFFSET -7.75947 0.938293 5.60832
                CHANNELS 3 Zrotation Xrotation Yrotation
                JOINT rIndex2
                {
                  OFFSET -2.54057 -0.884171 1.56538
                  CHANNELS 3 Zrotation Xrotation Yrotation
                  End Site
                  {
                    OFFSET -1.62519 -0.234802 1.16502
                  }
                }
              }
              JOINT rMid1
              {
                OFFSET -8.24714 1.18213 3.41376
                CHANNELS 3 Zrotation Xrotation Yrotation
                JOINT rMid2
                {
                  OFFSET -3.10165 -0.590103 1.0647
                  CHANNELS 3 Zrotation Xrotation Yrotation
                  End Site
                  {
                    OFFSET -2.48547 -0.328903 0.83742
                  }
                }
              }
              JOINT rRing1
              {
                OFFSET -8.82822 0.546677 1.51678
                CHANNELS 3 Zrotation Xrotation Yrotation
                JOINT rRing2
                {
                  OFFSET -2.60934 -0.819778 -0.0198488
                  CHANNELS 3 Zrotation Xrotation Yrotation
                  End Site
                  {
                    OFFSET -2.33842 -0.294052 0.168128
                  }
                }
              }
              JOINT rPinky1
              {
                OFFSET -8.27202 -0.0477905 -0.4584
                CHANNELS 3 Zrotation Xrotation Yrotation
                JOINT rPinky2
                {
                  OFFSET -1.82734 -0.647385 -0.700984
                  CHANNELS 3 Zrotation Xrotation Yrotation
                  End Site
                  {
                    OFFSET -1.69225 -0.51767 -0.607171
                  }
                }
              }
            }
          }
        }
      }
      JOINT lCollar
      {
        OFFSET 2.68224 19.2634 -4.8768
        CHANNELS 3 Zrotation Xrotation Yrotation
        JOINT lShldr
        {
          OFFSET 8.77824 -1.95073 1.46304
          CHANNELS 3 Zrotation Xrotation Yrotation
          JOINT lForeArm
          {
            OFFSET 28.1742 -1.7115 0.48768
            CHANNELS 3 Zrotation Xrotation Yrotation
            JOINT lHand
            {
              OFFSET 22.5879 0.773209 7.07136
              CHANNELS 3 Zrotation Xrotation Yrotation
              JOINT lThumb1
              {
                OFFSET 1.2192 -0.487915 3.41376
                CHANNELS 3 Zrotation Xrotation Yrotation
                JOINT lThumb2
                {
                  OFFSET 3.37035 -0.52449 3.41376
                  CHANNELS 3 Zrotation Xrotation Yrotation
                  End Site
                  {
                    OFFSET 1.78271 -1.18214 1.43049
                  }
                }
              }
              JOINT lIndex1
              {
                OFFSET 7.75947 0.938293 5.60832
                CHANNELS 3 Zrotation Xrotation Yrotation
                JOINT lIndex2
                {
                  OFFSET 2.54057 -0.884171 1.56538
                  CHANNELS 3 Zrotation Xrotation Yrotation
                  End Site
                  {
                    OFFSET 1.62519 -0.234802 1.16502
                  }
                }
              }
              JOINT lMid1
              {
                OFFSET 8.24714 1.18213 3.41376
                CHANNELS 3 Zrotation Xrotation Yrotation
                JOINT lMid2
                {
                  OFFSET 3.10165 -0.590103 1.0647
                  CHANNELS 3 Zrotation Xrotation Yrotation
                  End Site
                  {
                    OFFSET 2.48547 -0.328903 0.83742
                  }
                }
              }
              JOINT lRing1
              {
                OFFSET 8.82822 0.546677 1.51678
                CHANNELS 3 Zrotation Xrotation Yrotation
                JOINT lRing2
                {
                  OFFSET 2.60934 -0.819778 -0.0198488
                  CHANNELS 3 Zrotation Xrotation Yrotation
                  End Site
                  {
                    OFFSET 2.33842 -0.294052 0.168128
                  }
                }
              }
              JOINT lPinky1
              {
                OFFSET 8.27202 -0.0477905 -0.4584
                CHANNELS 3 Zrotation Xrotation Yrotation
                JOINT lPinky2
                {
                  OFFSET 1.82734 -0.647385 -0.700984
                  CHANNELS 3 Zrotation Xrotation Yrotation
                  End Site
                  {
                    OFFSET 1.69225 -0.51767 -0.607171
                  }
                }
              }
            }
          }
        }
      }
    }
  }
  JOINT rButtock
  {
    OFFSET -8.77824 4.35084 1.2192
    CHANNELS 3 Zrotation Xrotation Yrotation
    JOINT rThigh
    {
      OFFSET 0 -1.70687 -2.19456
      CHANNELS 3 Zrotation Xrotation Yrotation
      JOINT rShin
      {
        OFFSET 0 -36.8199 0.73152
        CHANNELS 3 Zrotation Xrotation Yrotation
        JOINT rFoot
        {
          OFFSET 0.73152 -45.1104 -5.12064
          CHANNELS 3 Zrotation Xrotation Yrotation
          End Site
          {
            OFFSET -1.1221 -3.69964 12.103
          }
        }
      }
    }
  }
  JOINT lButtock
  {
    OFFSET 8.77824 4.35084 1.2192
    CHANNELS 3 Zrotation Xrotation Yrotation
    JOINT lThigh
    {
      OFFSET 0 -1.70687 -2.19456
      CHANNELS 3 Zrotation Xrotation Yrotation
      JOINT lShin
      {
        OFFSET 0 -36.8199 0.73152
        CHANNELS 3 Zrotation Xrotation Yrotation
        JOINT lFoot
        {
          OFFSET -0.73152 -45.1104 -5.12064
          CHANNELS 3 Zrotation Xrotation Yrotation
          End Site
          {
            OFFSET 1.1221 -3.69964 12.103
          }
        }
      }
    }
  }
}
MOTION
Frames:	6
Frame Time:	0.00833333
4.99845 85.2343 -181.441 0.0 0.0 0.0 0.705189 -0.00371385 0.0199543 0.194579 -0.00526912 0.0337141 7.78958e-16 0.0 -1.61513e-16 2.31087e-15 3.18055e-15 -4.2397e-16 -0.0 0.0 0.0 -0.0 0.0 0.0 4.46006e-16 9.12391e-18 9.93923e-17 1.07019e-14 3.97569e-16 -3.97569e-16 1.50082e-13 -3.73715e-14 -3.18055e-14 1.70282e-12 7.34758e-14 -2.73528e-13 4.01631e-12 7.25206e-14 -6.36111e-13 6.92089e-12 1.27222e-13 -1.09809e-12 4.01744e-12 7.23576e-14 -6.42472e-13 7.73091 5.47488 0.417314 4.01515e-12 7.22582e-14 -6.2975e-13 2.90554 0.965183 0.102902 4.01608e-12 7.20594e-14 -6.3293e-13 10.2786 0.731801 0.0259123 4.00432e-12 7.55382e-14 -6.20208e-13 2.22167 -0.733487 -0.20892 3.49157e-16 9.31803e-18 -1.98785e-16 6.79605e-15 3.91357e-16 -2.38542e-15 1.47598e-13 4.85035e-14 -1.27222e-14 1.70372e-12 -1.87852e-14 -2.76708e-13 4.01791e-12 6.14851e-14 -6.2975e-13 6.95428e-12 1.01778e-13 -1.08695e-12 4.01505e-12 6.32135e-14 -6.13847e-13 -7.73091 5.47488 -0.417314 4.01803e-12 6.15239e-14 -6.2975e-13 -2.90554 0.965183 -0.102902 4.01051e-12 6.15239e-14 -6.32135e-13 -10.2786 0.731801 -0.0259123 4.024e-12 6.40087e-14 -6.48833e-13 -2.22167 -0.733487 0.20892 -2.03217e-16 0.0 -3.88251e-19 1.03767 -4.8484 -0.0878814 -0.00129059 3.22991 0.00172024 -0.507986 1.61857 0.0909488 2.03217e-16 0.0 3.88251e-19 0.0358177 -2.16336 0.0186165 0.00864539 -1.63356 0.0730534 0.498162 3.79688 -0.134159
4.97942 83.8509 -182.655 -1.3967 3.354 3.2109 1.17425 0.186151 -0.387167 0.741823 -0.908945 -0.0600668 -0.674214 0.968721 -0.842656 1.14511 -6.16748 -1.30772 -0.0 0.0 0.0 -0.0 0.0 0.0 8.60944e-15 -8.89525e-15 -3.87917e-14 21.5285 2.95988 -0.651853 -3.52784 -1.48633 5.63026 0.0181714 -2.99193 -0.418422 -8.40725e-11 -3.74623e-10 -1.41959e-10 -1.43688e-10 -6.50644e-10 -2.46643e-10 -8.40679e-11 -3.74622e-10 -1.41969e-10 7.73091 5.47488 0.417314 -8.40743e-11 -3.74622e-10 -1.41952e-10 2.90554 0.965183 0.102902 -8.40721e-11 -3.74623e-10 -1.41957e-10 10.2786 0.731801 0.0259123 -8.40833e-11 -3.7462e-10 -1.41945e-10 2.22167 -0.733487 -0.20892 8.47105e-15 -8.89231e-15 -3.90763e-14 -23.2478 6.74131 -0.125741 4.41584 -2.04695 -6.85265 -0.00403571 1.40993 -0.197937 9.80968e-11 2.62281e-10 -1.78613e-10 1.6895e-10 4.53218e-10 -3.09715e-10 9.80934e-11 2.62285e-10 -1.78597e-10 -7.73091 5.47488 -0.417314 9.80975e-11 2.62282e-10 -1.78611e-10 -2.90554 0.965183 -0.102902 9.80902e-11 2.62282e-10 -1.78613e-10 -10.2786 0.731801 -0.0259123 9.81025e-11 2.62283e-10 -1.78626e-10 -2.22167 -0.733487 0.20892 -2.03217e-16 0.0 -3.88251e-19 1.03794 -7.1866 -0.460525 0.017222 10.0375 0.137918 -0.8811 -3.42778 -3.15036 2.03217e-16 0.0 3.88251e-19 0.820521 -5.00085 -1.12415 -0.00714987 5.74845 -0.0601788 0.58697 -1.55283 1.14361
4.97131 83.8533 -182.657 -1.5092 3.5448 3.2144 1.66629 0.393196 -0.821398 1.31646 -1.86968 -0.160274 -1.3594 2.00205 -1.73647 2.05572 -12.696 -2.74249 -0.0 0.0 0.0 -0.0 0.0 0.0 1.76467e-14 -2.01885e-14 -8.42039e-14 44.3629 6.07539 -1.35477 -6.94025 -3.00907 11.5927 -0.0103622 -6.14517 -0.863284 -1.83214e-10 -8.07583e-10 -3.07256e-10 -3.13117e-10 -1.40261e-09 -5.33836e-10 -1.83206e-10 -8.07581e-10 -3.0727e-10 7.73091 5.47488 0.417314 -1.83216e-10 -8.07582e-10 -3.07247e-10 2.90554 0.965183 0.102902 -1.83213e-10 -8.07582e-10 -3.07254e-10 10.2786 0.731801 0.0259123 -1.83223e-10 -8.07581e-10 -3.07243e-10 2.22167 -0.733487 -0.20892 1.74647e-14 -2.01825e-14 -8.44742e-14 -47.7891 13.8775 -0.262547 8.55981 -4.11626 -14.1311 0.00229736 2.89522 -0.406858 2.00029e-10 5.55776e-10 -3.80776e-10 3.44388e-10 9.60354e-10 -6.60219e-10 2.00025e-10 5.55783e-10 -3.8076e-10 -7.73091 5.47488 -0.417314 2.0003e-10 5.55778e-10 -3.80772e-10 -2.90554 0.965183 -0.102902 2.00023e-10 5.55777e-10 -3.80774e-10 -10.2786 0.731801 -0.0259123 2.00034e-10 5.55778e-10 -3.80784e-10 -2.22167 -0.733487 0.20892 -2.03217e-16 0.0 -3.88251e-19 1.00133 -9.6595 -0.855346 -3.04654e-06 17.2417 0.290761 -1.90157 -8.7181 -6.64138 2.03217e-16 0.0 3.88251e-19 1.52217 -7.98957 -2.34293 0.0142416 13.5481 -0.206047 0.94196 -7.20123 2.5142
5.00475 83.8463 -182.674 -1.4103 3.7212 3.2872 2.12046 0.565769 -1.20146 1.82743 -2.71627 -0.247884 -1.9371 2.90365 -2.53086 2.5525 -18.4628 -4.11247 -0.0 0.0 0.0 -0.0 0.0 0.0 2.49363e-14 -2.6704e-14 -1.16574e-13 64.7896 8.87501 -1.97662 -9.71921 -4.28706 16.9339 -0.0779552 -8.97386 -1.26909 -2.6025e-10 -1.12401e-09 -4.24605e-10 -4.44904e-10 -1.95219e-09 -7.37732e-10 -2.60239e-10 -1.12401e-09 -4.24622e-10 7.73091 5.47488 0.417314 -2.60253e-10 -1.12401e-09 -4.24595e-10 2.90554 0.965183 0.102902 -2.60249e-10 -1.12401e-09 -4.24604e-10 10.2786 0.731801 0.0259123 -2.60258e-10 -1.12401e-09 -4.24594e-10 2.22167 -0.733487 -0.20892 2.47149e-14 -2.66956e-14 -1.16831e-13 -69.6498 20.2235 -0.399229 11.8073 -5.79023 -20.6549 0.0171851 4.22959 -0.595251 2.86255e-10 7.8672e-10 -5.34578e-10 4.9294e-10 1.35945e-09 -9.2697e-10 2.8625e-10 7.86729e-10 -5.34562e-10 -7.73091 5.47488 -0.417314 2.86257e-10 7.86724e-10 -5.34573e-10 -2.90554 0.965183 -0.102902 2.86249e-10 7.86723e-10 -5.34575e-10 -10.2786 0.731801 -0.0259123 2.86259e-10 7.86722e-10 -5.34581e-10 -2.22167 -0.733487 0.20892 -2.03217e-16 0.0 -3.88251e-19 0.945309 -11.8611 -1.22168 -0.0507695 23.652 0.441033 -3.36971 -13.3423 -9.88537 2.03217e-16 0.0 3.88251e-19 2.04522 -10.6597 -3.45653 0.0691873 20.5121 -0.347723 1.49174 -12.2273 3.78324
4.95738 83.8591 -182.661 -1.7992 3.8964 3.2252 2.47372 0.652285 -1.44605 2.18576 -3.27755 -0.303741 -2.30823 3.4784 -3.07377 2.65754 -22.3636 -5.13742 -0.0 0.0 0.0 -0.0 0.0 0.0 2.78565e-14 -2.12754e-14 -1.16339e-13 79.0496 10.8896 -2.37559 -11.5181 -5.11644 20.6811 -0.150548 -10.993 -1.5644 -2.82023e-10 -1.14912e-09 -4.22085e-10 -4.82584e-10 -1.99578e-09 -7.33383e-10 -2.8201e-10 -1.14912e-09 -4.22104e-10 7.73091 5.47488 0.417314 -2.82026e-10 -1.14912e-09 -4.22076e-10 2.90554 0.965183 0.102902 -2.82021e-10 -1.14912e-09 -4.22085e-10 10.2786 0.731801 0.0259123 -2.82031e-10 -1.14912e-09 -4.22076e-10 2.22167 -0.733487 -0.20892 2.76062e-14 -2.12661e-14 -1.16587e-13 -84.8749 24.5942 -0.515413 13.8231 -6.81252 -25.1987 0.0331105 5.18688 -0.730987 3.33216e-10 8.61288e-10 -5.67478e-10 5.74274e-10 1.48845e-09 -9.84335e-10 3.33211e-10 8.61298e-10 -5.67462e-10 -7.73091 5.47488 -0.417314 3.33218e-10 8.61293e-10 -5.67471e-10 -2.90554 0.965183 -0.102902 3.33211e-10 8.61291e-10 -5.67473e-10 -10.2786 0.731801 -0.0259123 3.3322e-10 8.6129e-10 -5.67478e-10 -2.22167 -0.733487 0.20892 -2.03217e-16 0.0 -3.88251e-19 0.90544 -13.3858 -1.50397 -0.10826 28.0778 0.556812 -4.71516 -16.4751 -12.2585 2.03217e-16 0.0 3.88251e-19 2.36385 -12.548 -4.26636 0.130426 25.3873 -0.457534 2.01052 -15.7232 4.70613
5.04723 83.8556 -182.684 -1.6774 3.9552 3.3296 2.69021 0.607519 -1.49418 2.3233 -3.42812 -0.313547 -2.40978 3.60016 -3.26373 2.52075 -23.6854 -5.54851 -0.0 0.0 0.0 -0.0 0.0 0.0 2.30951e-14 4.29948e-15 -6.18834e-14 84.6146 11.8168 -2.4394 -12.1978 -5.428 22.1645 -0.188439 -11.9001 -1.69877 -1.93925e-10 -7.13754e-10 -2.04086e-10 -3.32849e-10 -1.23934e-09 -3.54647e-10 -1.93911e-10 -7.13752e-10 -2.04105e-10 7.73091 5.47488 0.417314 -1.93928e-10 -7.13751e-10 -2.04078e-10 2.90554 0.965183 0.102902 -1.93921e-10 -7.13752e-10 -2.04087e-10 10.2786 0.731801 0.0259123 -1.93932e-10 -7.13751e-10 -2.04079e-10 2.22167 -0.733487 -0.20892 2.28264e-14 4.30735e-15 -6.21307e-14 -90.8325 26.2053 -0.596885 14.5329 -7.15322 -26.9183 0.0412202 5.60356 -0.790243 3.45791e-10 6.96167e-10 -4.03672e-10 5.97302e-10 1.20341e-09 -7.01248e-10 3.45788e-10 6.96177e-10 -4.03658e-10 -7.73091 5.47488 -0.417314 3.45794e-10 6.96172e-10 -4.03666e-10 -2.90554 0.965183 -0.102902 3.45786e-10 6.96171e-10 -4.03668e-10 -10.2786 0.731801 -0.0259123 3.45796e-10 6.9617e-10 -4.03673e-10 -2.22167 -0.733487 0.20892 -2.03217e-16 0.0 -3.88251e-19 0.919065 -13.9658 -1.66846 -0.134874 29.7189 0.603167 -5.31039 -17.643 -13.2266 2.03217e-16 0.0 3.88251e-19 2.50882 -13.3588 -4.62629 0.160742 27.342 -0.504713 2.24192 -17.0994 5.06807
